<?xml version='1.0' encoding='UTF-8'?>
<svg x="0px" y="0px" viewBox="0 0 32 32" version="1.1" xmlns="http://www.w3.org/2000/svg" xmlns:xlink="http://www.w3.org/1999/xlink" xml:space="preserve" id="Layer_1" style="enable-background:new 0 0 32 32">
  <style type="text/css">
	.Blue{fill:#1177D7;}
	.Yellow{fill:#FFB115;}
	.Red{fill:#D11C1C;}
	.Green{fill:#039C23;}
	.Black{fill:#727272;}
	.White{fill:#FFFFFF;}
	.st0{opacity:0.5;}
	.st1{opacity:0.75;}
	.st2{display:none;}
	.st3{display:inline;fill:#FFB115;}
	.st4{display:inline;}
	.st5{display:inline;opacity:0.75;}
	.st6{display:inline;opacity:0.5;}
	.st7{display:inline;fill:#039C23;}
	.st8{display:inline;fill:#D11C1C;}
	.st9{display:inline;fill:#1177D7;}
	.st10{display:inline;fill:#FFFFFF;}
</style>
  <path d="M30,10.8V29c0,0.6-0.4,1-1,1H18.8l2.6-2.6c0.5-0.5,0.7-1.2,0.5-1.8l-2.3-10.4l7.8-7.8l2,2  C29.8,9.8,30,10.3,30,10.8z M10.6,27.4c-0.5-0.5-0.7-1.2-0.5-1.8l2.3-10.4L4.6,7.4l-2,2C2.2,9.8,2,10.3,2,10.8V29c0,0.6,0.4,1,1,1  h10.2L10.6,27.4z M21.2,2H10.8c-0.5,0-1,0.2-1.4,0.6L6,6l6,6l4-4l-4-4h8l-4,4l4,4l6-6l-3.4-3.4C22.2,2.2,21.7,2,21.2,2z" class="Black" />
  <polygon points="17.5,14.5 18.6,13.4 16,10.8 13.4,13.4 14.5,14.5 12,26 16,30 20,26 " class="Red" />
</svg>