<?xml version='1.0' encoding='UTF-8'?>
<svg x="0px" y="0px" viewBox="0 0 32 32" version="1.1" xmlns="http://www.w3.org/2000/svg" xmlns:xlink="http://www.w3.org/1999/xlink" xml:space="preserve" id="Layer_1" style="enable-background:new 0 0 32 32">
  <style type="text/css">
	.Green{fill:#039C23;}
</style>
  <path d="M14,24c0-5.5,4.5-10,10-10c0.7,0,1.3,0.1,1.9,0.2c0-0.4,0.1-0.8,0.1-1.2c0-7.2-5.8-13-13-13S0,5.8,0,13  s5.8,13,13,13c0.4,0,0.8,0,1.2-0.1C14.1,25.3,14,24.7,14,24z M9.3,18.6V7.4l9.3,5.6L9.3,18.6z" class="Green" />
  <path d="M24,16c-4.4,0-8,3.6-8,8s3.6,8,8,8s8-3.6,8-8S28.4,16,24,16z M22.5,28L19,24.5l1.5-1.5l2,2l5-5l1.5,1.5  L22.5,28z" class="Green" />
</svg>