<?xml version='1.0' encoding='UTF-8'?>
<svg x="0px" y="0px" viewBox="0 0 32 32" version="1.1" xmlns="http://www.w3.org/2000/svg" xmlns:xlink="http://www.w3.org/1999/xlink" xml:space="preserve" id="Create_Stacked_Bar_3D_Chart" style="enable-background:new 0 0 32 32">
  <style type="text/css">
	.Blue{fill:#1177D7;}
	.Yellow{fill:#FFB115;}
	.Red{fill:#D11C1C;}
	.st0{opacity:0.75;}
	.st1{opacity:0.5;}
</style>
  <g class="st0">
    <path d="M8,18H2v-4h6V18z M18,10h-6v4h6V10z M28,6h-6v6h6V6z" class="Blue" />
  </g>
  <g class="st0">
    <path d="M8,24H2v-6h6V24z M18,14h-6v8h6V14z M28,12h-6v6h6V12z" class="Yellow" />
  </g>
  <g class="st0">
    <path d="M8,28H2v-4h6V28z M18,22h-6v6h6V22z M28,18h-6v10h6V18z" class="Red" />
  </g>
  <g class="st1">
    <path d="M10,12v2H2l2-2H10z M14,8l-2,2h8V8H14z M24,4l-2,2h8V4H24z" class="Blue" />
  </g>
  <path d="M10,26l-2,2v-6h2V26z M20,20h-2v8l2-2V20z M30,16h-2v12l2-2V16z" class="Red" />
  <path d="M10,22l-2,2V14h2V22z M20,12h-2v10l2-2V12z M30,10h-2v8l2-2V10z" class="Yellow" />
  <path d="M10,16l-2,2v-4l2-2V16z M20,8l-2,2v4l2-2V8z M30,4l-2,2v6l2-2V4z" class="Blue" />
</svg>