<?xml version='1.0' encoding='UTF-8'?>
<svg x="0px" y="0px" viewBox="0 0 32 32" version="1.1" xmlns="http://www.w3.org/2000/svg" xmlns:xlink="http://www.w3.org/1999/xlink" xml:space="preserve" id="Layer_1" style="enable-background:new 0 0 32 32">
  <style type="text/css">
	.Red{fill:#D11C1C;}
	.Black{fill:#727272;}
</style>
  <path d="M8,4h18v6h2V3c0-0.5-0.5-1-1-1H7C6.5,2,6,2.5,6,3v7h2V4z" class="Black" />
  <path d="M26,26H8v-8H6v9c0,0.5,0.5,1,1,1h20c0.5,0,1-0.5,1-1v-9h-2V26z" class="Black" />
  <path d="M26.9,14.6H26v2.1h0.9c0.4,0,0.7-0.1,0.9-0.3c0.2-0.2,0.3-0.4,0.3-0.8c0-0.3-0.1-0.6-0.3-0.7  C27.6,14.7,27.3,14.6,26.9,14.6z" class="Red" />
  <path d="M27.6,13.1c0.2-0.2,0.3-0.4,0.3-0.7c0-0.6-0.4-0.9-1.3-0.9H26v1.9h0.8C27.1,13.3,27.4,13.2,27.6,13.1z" class="Red" />
  <path d="M12.4,11.4h-0.7v2.5h0.7c0.9,0,1.4-0.4,1.4-1.3C13.8,11.8,13.3,11.4,12.4,11.4z" class="Red" />
  <path d="M31,8H3C2.4,8,2,8.4,2,9v10c0,0.6,0.4,1,1,1h28c0.6,0,1-0.4,1-1V9C32,8.4,31.6,8,31,8z M8.6,18H4v-8h4.4v1.5  H5.7v1.8h2.5v1.5H5.7v1.8h2.8V18z M14.7,14.5c-0.5,0.5-1.3,0.7-2.2,0.7h-0.8V18H10v-8h2.7c1.9,0,2.9,0.8,2.9,2.5  C15.6,13.4,15.3,14,14.7,14.5z M22.6,14.5c0,2.4-1.1,3.5-3.2,3.5c-2.1,0-3.1-1.2-3.1-3.5V10h1.7v4.6c0,1.3,0.5,1.9,1.4,1.9  c0.9,0,1.4-0.6,1.4-1.8V10h1.7V14.5z M29.3,17.4c-0.5,0.4-1.2,0.6-2,0.6h-2.9v-7.8h2.8c0.8,0,1.5,0.2,2,0.5c0.5,0.3,0.7,0.8,0.7,1.4  c0,0.4-0.1,0.8-0.4,1.1c-0.3,0.3-0.6,0.5-1.1,0.7v0c0.5,0.1,1,0.3,1.3,0.6c0.3,0.3,0.5,0.8,0.5,1.3C30,16.4,29.8,16.9,29.3,17.4z" class="Red" />
</svg>