<?xml version='1.0' encoding='UTF-8'?>
<svg x="0px" y="0px" viewBox="0 0 32 32" version="1.1" xmlns="http://www.w3.org/2000/svg" xmlns:xlink="http://www.w3.org/1999/xlink" xml:space="preserve" id="Layer_1" style="enable-background:new 0 0 32 32">
  <style type="text/css">
	.Black{fill:#727272;}
	.st0{opacity:0.6;}
</style>
  <path d="M38,8" class="Black" />
  <g class="st0">
    <path d="M16.6,11.1h-1.1V14h1c0.6,0,1.1-0.1,1.5-0.4c0.3-0.3,0.5-0.6,0.5-1.1C18.4,11.6,17.8,11.1,16.6,11.1z" class="Black" />
    <path d="M29,8H5C4.4,8,4,8.4,4,9v10c0,0.6,0.4,1,1,1h24c0.6,0,1-0.4,1-1V9C30,8.4,29.6,8,29,8z M12.6,18h-1.8   l-1.2-2.5c-0.1-0.2-0.2-0.3-0.3-0.6h0c0,0-0.1,0.2-0.3,0.6L7.7,18H5.9l2.4-3.9L6,10h1.8l1.2,2.6c0.1,0.2,0.2,0.4,0.3,0.6h0l1.6-3.2   h1.7l-2.3,4L12.6,18z M19.1,14.4c-0.6,0.5-1.4,0.7-2.4,0.7h-1.2V18H14v-8h2.7c1,0,1.8,0.2,2.4,0.6c0.6,0.4,0.9,1,0.9,1.8   S19.7,13.9,19.1,14.4z M26.6,16.9c-0.2,0.3-0.4,0.5-0.7,0.7s-0.6,0.3-1,0.4c-0.4,0.1-0.8,0.1-1.2,0.1c-0.1,0-0.3,0-0.5,0   c-0.2,0-0.4-0.1-0.6-0.1c-0.2,0-0.4-0.1-0.6-0.1c-0.2-0.1-0.3-0.1-0.4-0.2v-1.4c0.1,0.1,0.3,0.2,0.4,0.3c0.2,0.1,0.4,0.2,0.5,0.2   s0.4,0.1,0.6,0.1s0.4,0.1,0.5,0.1c0.6,0,1-0.1,1.3-0.3c0.3-0.2,0.4-0.5,0.4-0.8c0-0.2,0-0.4-0.1-0.5c-0.1-0.1-0.2-0.3-0.4-0.4   c-0.2-0.1-0.4-0.2-0.6-0.3c-0.2-0.1-0.5-0.2-0.7-0.3c-0.3-0.1-0.5-0.3-0.8-0.4c-0.2-0.2-0.4-0.3-0.6-0.5c-0.2-0.2-0.3-0.4-0.4-0.6   c-0.1-0.2-0.2-0.5-0.2-0.8c0-0.4,0.1-0.7,0.3-1c0.2-0.3,0.4-0.5,0.7-0.7c0.3-0.2,0.6-0.3,1-0.4c0.4-0.1,0.7-0.1,1.1-0.1   c0.9,0,1.5,0.1,1.9,0.3v1.3c-0.5-0.3-1.1-0.5-1.8-0.5c-0.5,0-1.6,0.2-1.6,1c0,1.2,2.1,1.5,2.9,2.3c0.6,0.6,0.8,1.2,0.8,1.8   C26.8,16.3,26.8,16.7,26.6,16.9z" class="Black" />
  </g>
  <path d="M6,3v5h2V4h18v4h2V3c0-0.6-0.4-1-1-1H7C6.4,2,6,2.4,6,3z" class="Black" />
  <path d="M28,27v-7h-2v6H8v-6H6v7c0,0.6,0.4,1,1,1h20C27.6,28,28,27.6,28,27z" class="Black" />
</svg>